<?xml version="1.0" encoding="utf-8"?>
<!-- Generator: Adobe Illustrator 24.0.1, SVG Export Plug-In . SVG Version: 6.00 Build 0)  -->
<svg version="1.1" id="Layer_1" xmlns="http://www.w3.org/2000/svg" xmlns:xlink="http://www.w3.org/1999/xlink" x="0px" y="0px"
	 viewBox="0 0 389.57 315.84" style="enable-background:new 0 0 389.57 315.84;" xml:space="preserve">
<style type="text/css">
	.st0{fill:url(#SVGID_1_);}
	.st1{fill:url(#SVGID_2_);}
	.st2{fill:#9C6026;}
	.st3{fill:none;stroke:#BCBEC0;stroke-width:3;stroke-miterlimit:10;}
	.st4{fill:none;}
	.st5{fill:none;stroke:#9C6026;stroke-width:3;stroke-miterlimit:10;}
	.st6{opacity:0.83;fill:#9C6026;}
	.st7{opacity:0.83;fill:none;stroke:#9C6026;stroke-width:6;stroke-miterlimit:10;}
</style>
<g>
	<linearGradient id="SVGID_1_" gradientUnits="userSpaceOnUse" x1="238.4836" y1="122.626" x2="256.4124" y2="63.7834">
		<stop  offset="7.146548e-04" style="stop-color:#000000"/>
		<stop  offset="0.036" style="stop-color:#2B1B0A"/>
		<stop  offset="0.0783" style="stop-color:#583713"/>
		<stop  offset="0.121" style="stop-color:#7D4F1C"/>
		<stop  offset="0.1635" style="stop-color:#9A6122"/>
		<stop  offset="0.2056" style="stop-color:#AF6E26"/>
		<stop  offset="0.2471" style="stop-color:#BB7529"/>
		<stop  offset="0.2876" style="stop-color:#BF782A"/>
	</linearGradient>
	<path class="st0" d="M278.06,47.06c-0.17,0-0.44,0.37-0.48,0.6c-0.17,1.17-0.28,2.36-0.43,3.54c-0.14,1.17-0.3,2.34-0.43,3.4
		c-2.26,0-4.38,0.01-6.5,0c-1.49-0.01-1.62-0.25-1.37-1.72c0.25-1.5,0.42-3.01,0.52-4.53c0.09-1.31,0.02-1.32-1.26-1.32
		c-8.86,0-17.72,0-26.57,0c-0.17,0-0.38-0.06-0.49,0.02c-0.31,0.23-0.79,0.48-0.83,0.77c-0.26,2.03-0.46,4.07-0.61,6.11
		c-0.06,0.69-0.41,0.84-0.98,0.83c-1.16-0.04-2.32-0.09-3.48-0.13c-1-0.03-2-0.04-2.99-0.1c-0.42-0.03-0.74-0.16-0.66-0.75
		c0.27-1.96,0.49-3.93,0.73-5.9c0.07-0.6-0.14-0.86-0.76-0.86c-1.73,0.02-3.46,0.02-5.2,0c-0.62,0-0.85,0.19-0.88,0.86
		c-0.07,1.49-0.28,2.96-0.44,4.44c-0.24,2.2-0.5,4.4-0.74,6.6c-0.23,2.07-0.44,4.14-0.67,6.21c-0.24,2.14-0.51,4.27-0.74,6.41
		c-0.3,2.73-0.56,5.47-0.86,8.2c-0.3,2.73-0.64,5.46-0.94,8.19c-0.36,3.36-0.69,6.73-1.06,10.09c-0.44,4.02-0.92,8.04-1.36,12.06
		c-0.03,0.27-0.06,0.54-0.09,0.82c0.62,0.96,1.46,2.01,2.58,2.98c0.51,0.44,1.03,0.83,1.52,1.15c-0.03-0.03-0.05-0.05-0.07-0.08
		c3.18,1.17,6.39,2.09,9.73,2.39c3.41,0.3,6.74-0.1,10.05-1.26c-0.12-0.51-0.21-0.96-0.33-1.4c-1.4-5.13-0.94-9.97,2.07-14.49
		c0.53-0.8,1.17-1.12,2.03-1.16c4.59-0.22,9.08,0.22,13.38,1.95c1.3,0.53,2.6,1.08,3.99,1.66c0.14-0.98,0.27-1.88,0.39-2.63h7.8
		c0.03,0.34,0.09,0.5,0.07,0.66c-0.17,1.45-0.32,2.9-0.54,4.34c-0.25,1.62-0.38,3.16,1.44,4.03c0.06,0.03,0.1,0.09,0.15,0.13
		c1.45,1.31,2.9,2.62,4.49,4.07c2.36-22.13,4.7-44.09,7.06-66.22C282.16,47.04,280.11,47.02,278.06,47.06z M233.64,107.96h-7.95
		c0.16-1.57,0.29-2.98,0.43-4.39c0.11-1.02,0.27-2.03,0.34-3.05c0.03-0.52,0.22-0.69,0.72-0.68c2.35,0.02,4.7,0,7.31,0
		C234.18,102.77,233.91,105.4,233.64,107.96z M235.59,90.13c-2.57,0-4.95,0.02-7.33-0.03c-0.2,0-0.58-0.53-0.56-0.78
		c0.23-2.4,0.52-4.79,0.8-7.16h7.95C236.15,84.95,235.86,87.59,235.59,90.13z M238.17,67c-0.18,1.64-0.37,3.28-0.62,4.91
		c-0.03,0.23-0.42,0.6-0.64,0.6c-2.19-0.01-4.37-0.1-6.56-0.15c-0.56-0.01-0.76-0.27-0.7-0.81c0.18-1.68,0.34-3.35,0.52-5.03
		c0.01-0.1,0.06-0.19,0.07-0.29c0.3-2,0.3-2.03,2.32-1.99c1.91,0.04,3.83,0.17,5.83,0.26C238.31,65.38,238.27,66.19,238.17,67z
		 M272.9,89.78c-0.03,0.22-0.48,0.54-0.74,0.54c-2.19-0.02-4.39-0.09-6.58-0.2c-0.22-0.01-0.61-0.41-0.6-0.6
		c0.18-2.28,0.4-4.55,0.68-6.82c0.03-0.25,0.5-0.63,0.76-0.63c2.39-0.05,4.78-0.03,7.3-0.03C273.44,84.85,273.2,87.32,272.9,89.78z
		 M275.05,70.2c-0.1,0.76-0.1,1.79-0.56,2.18c-0.44,0.36-1.45,0.02-2.2,0.01c-1.56-0.02-3.12-0.02-4.68-0.03
		c-0.49,0-0.85-0.12-0.78-0.74c0.29-2.42,0.57-4.84,0.85-7.25h8C275.45,66.42,275.28,68.32,275.05,70.2z"/>
	<path d="M321.76,160.3c-0.47-0.25-0.95-0.46-1.56-0.76c1.85-0.59,3.51-1.13,5.27-1.69c-2.76-3.36-5.42-6.6-8.1-9.82
		c-0.22-0.26-0.57-0.44-0.89-0.6c-2.4-1.22-4.81-2.43-7.21-3.64c-2.78-1.4-5.56-2.81-8.4-4.25c0.58-0.94,1.11-1.81,1.62-2.64
		c-0.1-0.14-0.12-0.21-0.17-0.25c-5.26-5-10.52-10-15.8-14.99c-0.24-0.23-0.63-0.36-0.96-0.42c-4.65-0.8-9.31-1.59-13.96-2.38
		c-1.93-0.33-3.86-0.67-5.8-1.01c0.01-0.08,0.02-0.17,0.03-0.26h10.38c-3.66-4.84-7.87-8.74-13.07-11.5
		c-5.21-2.78-10.79-4.09-16.92-4.23c6.54,7.49,11.58,15.36,10.8,25.79c-0.8-0.28-1.51-0.51-2.21-0.79
		c-4.2-1.65-8.11-3.71-10.87-7.47c-0.17-0.22-0.69-0.31-1.01-0.26c-1.64,0.25-3.26,0.67-4.91,0.83c-5.6,0.56-10.73-0.54-15.01-4.47
		c-0.15-0.14-0.27-0.3-0.4-0.46c-0.5-0.33-1.01-0.71-1.52-1.15c-1.13-0.97-1.96-2.02-2.58-2.98c-0.43,3.86-0.84,7.72-1.26,11.59
		c-0.63,5.85-1.27,11.71-1.91,17.56c-0.63,5.82-1.26,11.64-1.9,17.46c-0.7,6.38-1.39,12.76-2.09,19.15
		c-0.63,5.82-1.25,11.64-1.88,17.46c-0.65,6.06-1.31,12.11-1.96,18.16c-0.02,0.2,0.02,0.41,0.03,0.61c0.07,0.07,0.13,0.13,0.19,0.2
		c12.32-16.12,29.02-23.03,48.86-23.48c-0.34-0.3-0.65-0.47-0.96-0.62c-5.04-2.28-9.97-4.74-14.55-7.87
		c-4.41-3.02-8.38-6.47-10.7-11.46c-0.03-0.06-0.11-0.09-0.2-0.16c0.24,3.98,1.57,7.57,3.46,10.99c-0.89-0.81-1.71-1.64-2.45-2.54
		c-6.04-7.41-7.82-15.6-4.18-24.61c3.19-7.87,9.18-13.31,16.18-17.79c-0.17,0.2-0.34,0.4-0.51,0.6c-3.91,4.57-7.47,9.37-9.63,15.06
		c-3.03,7.99-1.76,15.2,3.98,21.58c2.46,2.75,5.34,5,8.41,7.02c4.49,2.95,9.28,5.33,14.15,7.57c0.42,0.19,0.89,0.53,1.06,0.93
		c1.65,3.78,3.26,7.57,4.84,11.37c0.77,1.86,1.46,3.77,2.17,5.61c0.15,0.02,0.23,0.04,0.28,0.03c5.33-1.74,10.67-3.5,16.01-5.22
		c0.55-0.18,0.66-0.51,0.71-1.03c0.17-1.99,0.37-3.98,0.55-5.96c0.13-1.47,0.25-2.95,0.37-4.46c-0.63-0.06-1.14-0.11-1.6-0.15
		c0.83-2.55,1.63-5.03,2.45-7.53c-2.31,2.18-4.48,4.27-6.71,6.3c-0.29,0.26-0.93,0.4-1.31,0.28c-1.46-0.45-2.88-1.02-4.29-1.58
		c-0.27-0.11-0.59-0.37-0.68-0.64c-1.63-4.74-2.13-9.52,0.2-14.16c2.93-5.83,8.1-8.35,14.3-8.94c7.23-0.69,13.62,1.61,19.38,5.93
		c0.89,0.66,1.03,1.29,0.76,2.27c-0.74,2.69-2.4,4.71-4.5,6.43c-0.23,0.2-0.46,0.4-0.84,0.72c0.78,0.04,1.34,0.09,1.9,0.09
		c5.31-0.01,8.35-2.21,9.54-6.99c0.19-0.75,0.53-1.09,1.24-1.32c1.23-0.39,2.54-0.7,3.6-1.39c1.29-0.85,2.42-1.99,3.51-3.1
		C324.34,163.07,324.05,161.51,321.76,160.3z M288.71,139.71c0-1.2,0.07-2.2-0.03-3.18c-0.04-0.43-0.29-0.97-0.63-1.2
		c-3.11-2.1-6.25-4.15-9.39-6.21c-0.27-0.18-0.55-0.35-0.79-0.59c6.35,1.64,12.23,4.39,18.13,7.59
		C293.51,137.34,291.23,138.47,288.71,139.71z"/>
	<linearGradient id="SVGID_2_" gradientUnits="userSpaceOnUse" x1="194.4904" y1="212.8122" x2="342.0637" y2="253.5033">
		<stop  offset="0.0477" style="stop-color:#000000"/>
		<stop  offset="0.0903" style="stop-color:#2B1B0A"/>
		<stop  offset="0.1416" style="stop-color:#583713"/>
		<stop  offset="0.1933" style="stop-color:#7D4F1C"/>
		<stop  offset="0.2446" style="stop-color:#9A6122"/>
		<stop  offset="0.2955" style="stop-color:#AF6E26"/>
		<stop  offset="0.3458" style="stop-color:#BB7529"/>
		<stop  offset="0.3947" style="stop-color:#BF782A"/>
	</linearGradient>
	<path class="st1" d="M347.81,213.08c-0.37,2.7-0.71,5.25-1.08,7.95c1.76,0,3.48,0,5.2,0c1.51,0,1.47,0.03,1.27,1.5
		c-0.29,2.16-0.45,4.34-0.69,6.51c-0.23,2.16-0.5,4.31-0.74,6.47c-0.23,2.17-0.43,4.34-0.67,6.51c-0.23,2.17-0.49,4.33-0.74,6.5
		c0,0.03-0.02,0.06-0.02,0.1c-0.11,0.57-0.04,1.39-0.38,1.64c-0.43,0.31-1.2,0.18-1.82,0.19c-1.63,0.02-3.25,0.01-5.02,0.01
		c-0.36,2.65-0.71,5.24-1.08,7.96c2.17,0,4.16,0,6.15,0c1.16,0,1.16,0.08,1,1.2c-0.22,1.5-0.38,3.02-0.47,4.53
		c-0.05,0.89-0.3,1.32-1.29,1.31c-5.83-0.04-11.65,0-17.48-0.04c-3.02-0.03-6.05-0.26-9.07-0.27c-5.16-0.01-10.32,0.11-15.47,0.11
		c-34.13,0.02-68.26,0.01-102.39,0.02c-0.36,0-0.72,0-1.26,0c0.08-0.95,0.14-1.82,0.23-2.69c0.12-1.22,0.22-2.45,0.43-3.66
		c0.04-0.23,0.53-0.52,0.82-0.53c1.53-0.05,3.05-0.02,4.72-0.02c0.35-2.62,0.7-5.19,1.05-7.87c-1.92,0-3.7,0-5.7,0
		c0.12-0.88,0.1-1.68,0.34-2.4c3.71-11.27,7.73-22.41,14.13-32.51c4.33-6.83,9.63-12.73,16.67-16.89c5.13-3.02,10.67-4.87,16.6-5.48
		c2.47-0.25,4.97-0.26,7.46-0.42c0.65-0.04,1.01,0.17,1.33,0.74c2.23,3.97,4.53,7.9,6.75,11.88c0.43,0.78,0.91,1.03,1.78,1.03
		c28.34-0.03,56.67-0.02,85.01-0.02c1.59,0,1.56,0,1.37,1.54c-0.18,1.41-0.34,2.83-0.42,4.25c-0.04,0.66-0.26,0.88-0.89,0.87
		C351.59,213.07,349.73,213.08,347.81,213.08z M297.89,250.51c-2.71,0-5.35,0-8.03,0c-0.36,2.63-0.71,5.2-1.06,7.79
		c2.75,0,5.42,0,8.07,0C297.21,255.69,297.54,253.18,297.89,250.51z M315.65,250.52c-2.7,0-5.33,0-8.04,0
		c-0.35,2.61-0.7,5.2-1.07,7.88c2.64,0,5.09,0.01,7.54-0.03c0.22,0,0.58-0.34,0.61-0.56C315.04,255.41,315.33,253,315.65,250.52z
		 M329.01,220.94c2.76,0,5.39,0,8.01,0c0.35-2.63,0.69-5.18,1.05-7.83c-2.59,0-5.11-0.01-7.62,0.02c-0.16,0-0.44,0.3-0.47,0.49
		C329.64,216.02,329.33,218.44,329.01,220.94z M280.12,250.47c-2.59,0-5.1-0.01-7.62,0.03c-0.16,0-0.43,0.36-0.46,0.58
		c-0.35,2.38-0.66,4.77-0.99,7.24c2.7,0,5.37,0,8.03,0C279.43,255.69,279.76,253.14,280.12,250.47z M333.41,250.5
		c-2.74,0-5.34,0-8.05,0c-0.35,2.62-0.7,5.2-1.06,7.89c2.64,0,5.09,0.02,7.54-0.03c0.22,0,0.59-0.42,0.63-0.69
		C332.82,255.33,333.1,252.98,333.41,250.5z M311.27,220.94c2.71,0,5.34,0,7.98,0c0.35-2.62,0.69-5.16,1.04-7.83
		c-2.58,0-5.07-0.01-7.55,0.02c-0.19,0-0.5,0.33-0.53,0.54C311.88,216.06,311.59,218.45,311.27,220.94z M293.51,220.96
		c2.73,0,5.31,0,7.96,0c0.35-2.61,0.69-5.17,1.05-7.85c-2.59,0-5.04-0.01-7.5,0.02c-0.2,0-0.54,0.32-0.56,0.53
		C294.12,216.05,293.83,218.44,293.51,220.96z M244.58,250.48c-2.58,0-5.06-0.02-7.55,0.03c-0.19,0-0.48,0.47-0.54,0.75
		c-0.17,0.84-0.27,1.7-0.37,2.55c-0.18,1.49-0.35,2.98-0.53,4.5c2.75,0,5.33,0,7.94,0C243.88,255.7,244.22,253.16,244.58,250.48z
		 M262.35,250.46c-2.14,0-4.19,0-6.25,0c-1.66,0-1.71-0.01-1.95,1.55c-0.32,2.08-0.56,4.17-0.83,6.31c2.74,0,5.35,0,7.98,0
		C261.65,255.69,261.99,253.15,262.35,250.46z M225.76,258.34c0.35-2.64,0.69-5.21,1.04-7.88c-2.6,0-5.02-0.02-7.44,0.04
		c-0.23,0.01-0.58,0.54-0.64,0.87c-0.24,1.37-0.41,2.75-0.58,4.13c-0.12,0.93-0.19,1.87-0.29,2.83
		C220.55,258.34,223.07,258.34,225.76,258.34z M240.23,220.95c2.76,0,5.31,0,7.95,0c0.34-2.61,0.68-5.18,1.02-7.78
		c-2.75,0-5.3,0-7.92,0C240.92,215.77,240.58,218.31,240.23,220.95z M275.78,220.95c2.71,0,5.28,0,7.93,0
		c0.35-2.61,0.69-5.18,1.04-7.84c-2.6,0-5.02-0.02-7.44,0.04c-0.23,0.01-0.57,0.48-0.64,0.78c-0.2,0.94-0.29,1.89-0.41,2.85
		C276.1,218.14,275.94,219.51,275.78,220.95z M259.02,213.15c-0.35,2.62-0.68,5.19-1.03,7.81c2.75,0,5.3,0,7.94,0
		c0.35-2.61,0.69-5.18,1.04-7.81C264.26,213.15,261.74,213.15,259.02,213.15z M223.51,213.16c-0.35,2.6-0.69,5.16-1.05,7.83
		c2.58,0,5,0.02,7.42-0.04c0.23-0.01,0.57-0.54,0.64-0.88c0.19-0.9,0.28-1.83,0.39-2.75c0.17-1.37,0.32-2.73,0.49-4.16
		C228.71,213.16,226.16,213.16,223.51,213.16z"/>
	<path class="st2" d="M128.76,239.92c0.83-8.11,1.65-16.06,2.46-24.01c-0.07-0.02-0.14-0.03-0.22-0.05
		c-0.08,0.23-0.18,0.45-0.23,0.68c-1.73,7.34-3.48,14.68-5.15,22.03c-0.25,1.1-0.68,1.48-1.77,1.37c-0.95-0.09-1.91-0.02-2.94-0.02
		c-0.22-8.14-0.44-16.14-0.66-24.15c-0.09-0.01-0.17-0.02-0.26-0.03c-0.13,1.01-0.27,2.01-0.38,3.02
		c-0.66,6.35-1.31,12.7-1.98,19.05c-0.22,2.11-0.25,2.11-2.34,2.11c-0.56,0-1.12,0-1.84,0c0.17-1.74,0.33-3.37,0.5-5.01
		c0.5-4.9,1.01-9.79,1.51-14.69c0.47-4.6,0.95-9.2,1.41-13.8c0.06-0.6,0.38-0.68,0.87-0.67c1.7,0.01,3.4,0.05,5.09-0.01
		c0.82-0.03,1,0.27,1.01,1.03c0.02,4.59,0.09,9.19,0.14,13.78c0.02,2.33,0.03,4.66,0.05,6.99c0,0.35,0.04,0.7,0.06,1.05
		c0.09,0.01,0.18,0.02,0.27,0.03c0.29-1.29,0.59-2.58,0.87-3.87c1.32-6.04,2.65-12.07,3.95-18.12c0.14-0.64,0.35-0.9,1.02-0.89
		c1.95,0.04,3.91,0.01,5.98,0.01c-0.17,1.75-0.31,3.37-0.47,4.98c-0.52,5.06-1.04,10.12-1.56,15.18c-0.46,4.43-0.92,8.87-1.41,13.29
		c-0.03,0.25-0.38,0.66-0.6,0.67C131.11,239.96,130.05,239.92,128.76,239.92z"/>
	<path d="M183.23,116.9c1.89,0,3.68,0,5.54,0c0.88,7.25,1.76,14.47,2.64,21.69c0.07,0.01,0.15,0.01,0.22,0.02
		c0.75-7.23,1.5-14.46,2.25-21.71c1.45,0,2.81,0,4.29,0c-0.16,1.64-0.3,3.25-0.47,4.85c-0.72,6.98-1.44,13.96-2.16,20.94
		c-0.27,2.61-0.52,5.23-0.83,7.84c-0.03,0.25-0.39,0.64-0.61,0.65c-1.56,0.06-3.12,0.03-4.77,0.03c-0.98-7.1-1.95-14.13-2.91-21.16
		c-0.07,0-0.15,0-0.22,0c-0.73,7.03-1.46,14.06-2.19,21.11c-1.46,0-2.81,0-4.3,0C180.88,139.72,182.05,128.36,183.23,116.9z"/>
	<path class="st2" d="M182.89,106.61c-1.75,0-3.44,0-5.23,0c-0.97-7.05-1.94-14.1-2.91-21.14c-0.09,0-0.19,0-0.28,0
		c-0.1,0.73-0.21,1.45-0.29,2.18c-0.62,6.05-1.24,12.11-1.83,18.16c-0.06,0.61-0.26,0.89-0.91,0.87c-1.09-0.04-2.18-0.01-3.36-0.01
		c0.22-2.21,0.41-4.28,0.63-6.36c0.43-4.17,0.88-8.33,1.31-12.5c0.49-4.8,0.98-9.59,1.45-14.39c0.06-0.62,0.25-0.96,0.97-0.93
		c1.26,0.05,2.53,0.04,3.79,0c0.61-0.02,0.82,0.25,0.89,0.8c0.6,5.08,1.22,10.17,1.83,15.25c0.21,1.78,0.42,3.57,0.64,5.35
		c0.02,0.15,0.11,0.28,0.39,0.42c0.75-7.23,1.5-14.47,2.26-21.75c1.37,0,2.66,0,4.16,0C185.22,83.9,184.06,95.19,182.89,106.61z"/>
	<path d="M157.79,194.84c0.72,1.38,1.38,2.64,2.13,4.08c-1.46,0-2.74,0.03-4.02-0.03c-0.21-0.01-0.48-0.31-0.61-0.54
		c-0.58-1.01-0.88-2.38-1.74-2.96c-0.81-0.55-2.18-0.26-3.3-0.36c-0.46-0.04-0.93-0.11-1.37-0.23c-1.47-0.4-2.29-1.27-2.26-2.77
		c0.06-2.52,0.24-5.05,0.48-7.56c0.53-5.53,1.11-11.05,1.72-16.57c0.15-1.35,0.44-2.69,0.79-4c0.47-1.74,1.77-2.73,3.48-2.84
		c2.35-0.16,4.72-0.15,7.07-0.01c1.92,0.12,3.06,1.37,3.03,3.32c-0.04,2.49-0.24,4.98-0.48,7.46c-0.53,5.53-1.13,11.05-1.71,16.57
		c-0.11,0.99-0.26,1.98-0.47,2.95C160.19,192.93,159.51,194.26,157.79,194.84z M153.46,191.22c1.76,0,2.19-0.34,2.38-2.07
		c0.45-4.09,0.88-8.19,1.31-12.29c0.34-3.24,0.7-6.47,0.96-9.72c0.04-0.54-0.22-1.37-0.62-1.62c-1.44-0.89-3.29,0.03-3.51,1.69
		c-0.35,2.67-0.61,5.35-0.89,8.02c-0.49,4.66-0.98,9.32-1.43,13.98C151.51,190.81,151.92,191.22,153.46,191.22z"/>
	<path d="M84.56,175.63c2.33,0.62,2.86,2.2,2.7,4.06c-0.35,3.91-0.7,7.82-1.26,11.7c-0.39,2.69-1.67,3.84-4.45,3.99
		c-3.31,0.17-6.64,0.04-10.11,0.04c1.16-11.28,2.33-22.64,3.51-34.03c0.13-0.05,0.25-0.13,0.37-0.13c3.33,0.05,6.66,0.04,9.98,0.19
		c2.22,0.1,3.42,1.43,3.36,3.65c-0.05,2.09-0.21,4.19-0.46,6.26C87.94,173.41,86.94,174.98,84.56,175.63z M79.56,165.62
		c-0.89,8.6-1.76,17.08-2.64,25.67c0.79,0,1.49,0.03,2.18-0.01c1.62-0.08,2.01-0.42,2.2-2.08c0.35-2.97,0.68-5.94,0.96-8.92
		c0.22-2.35,0.03-2.54-2.34-2.69c-0.06,0-0.11-0.06-0.24-0.14c0.13-1.21,0.27-2.45,0.41-3.73c0.5-0.03,0.93-0.07,1.35-0.09
		c0.9-0.03,1.47-0.5,1.59-1.36c0.23-1.71,0.43-3.43,0.55-5.15c0.07-1.05-0.38-1.46-1.41-1.51C81.33,165.6,80.5,165.62,79.56,165.62z
		"/>
	<path d="M169.04,151.69c-1.11-0.09-2.24-0.14-3.36-0.3c-2.03-0.28-3.08-1.33-3.05-3.39c0.03-2.42,0.23-4.85,0.46-7.26
		c0.47-4.9,0.97-9.79,1.52-14.68c0.24-2.11,0.55-4.21,0.98-6.29c0.4-1.91,1.76-3,3.67-3.12c2.22-0.13,4.46-0.19,6.67-0.02
		c2.41,0.19,3.44,1.38,3.38,3.84c-0.07,2.52-0.35,5.04-0.6,7.55c-0.55,5.56-1.14,11.11-1.74,16.67c-0.12,1.09-0.3,2.18-0.57,3.23
		c-0.55,2.17-1.78,3.23-3.96,3.48C171.32,151.54,170.19,151.6,169.04,151.69z M167.71,144.78c0.01,0,0.03,0,0.04,0
		c0,0.46-0.09,0.95,0.03,1.39c0.09,0.33,0.4,0.76,0.69,0.83c1.92,0.46,3.27,0.17,3.44-1.99c0.02-0.27,0.05-0.53,0.08-0.79
		c0.37-3.57,0.74-7.14,1.11-10.72c0.36-3.54,0.75-7.08,1.08-10.62c0.13-1.41-0.18-1.82-1.23-1.97c-1.62-0.23-2.55,0.21-2.81,1.46
		c-0.21,1-0.29,2.04-0.4,3.06C169.05,131.88,168.38,138.33,167.71,144.78z"/>
	<path d="M80.54,116.37c1.18,0.08,2.28,0.11,3.37,0.25c2.29,0.31,3.32,1.38,3.31,3.72c-0.01,1.96-0.22,3.92-0.41,5.87
		c-0.56,5.59-1.13,11.18-1.74,16.77c-0.18,1.68-0.41,3.37-0.77,5.02c-0.45,2.04-1.82,3.28-3.91,3.4c-2.22,0.13-4.45,0.14-6.66,0
		c-2.15-0.14-3.22-1.3-3.19-3.45c0.03-2.39,0.23-4.78,0.47-7.16c0.53-5.49,1.1-10.98,1.71-16.47c0.18-1.58,0.44-3.16,0.83-4.7
		c0.45-1.75,1.72-2.73,3.51-2.95C78.23,116.5,79.42,116.46,80.54,116.37z M75.62,144.85c-0.05,0.01-0.09,0.03-0.14,0.04
		c0.17,0.65,0.15,1.48,0.55,1.93c0.91,1.02,3.36,0.23,3.65-1.1c0.16-0.71,0.2-1.45,0.27-2.18c0.71-6.75,1.42-13.49,2.11-20.24
		c0.22-2.18-0.61-2.83-2.76-2.33c-1.14,0.27-1.29,1.16-1.39,2.05c-0.27,2.21-0.49,4.43-0.72,6.64
		C76.66,134.73,76.14,139.79,75.62,144.85z"/>
	<path d="M95.71,196.09c-1.11-0.1-2.24-0.16-3.36-0.3c-2.04-0.26-3.08-1.3-3.05-3.37c0.03-2.45,0.23-4.91,0.46-7.36
		c0.54-5.59,1.12-11.18,1.73-16.77c0.16-1.45,0.44-2.89,0.81-4.3c0.46-1.77,1.77-2.81,3.52-2.93c2.35-0.16,4.72-0.14,7.06-0.01
		c1.82,0.1,2.91,1.18,2.98,3.03c0.08,2.11-0.1,4.25-0.3,6.36c-0.6,6.16-1.25,12.31-1.91,18.45c-0.13,1.22-0.31,2.45-0.63,3.63
		c-0.51,1.92-1.78,3.07-3.81,3.26C98.05,195.9,96.89,195.99,95.71,196.09z M94.37,189.37c-0.09,1.79,0.3,2.21,1.78,2.22
		c1.66,0.01,2.12-0.38,2.38-2.01c0.05-0.33,0.09-0.66,0.12-0.99c0.58-5.59,1.16-11.18,1.73-16.77c0.17-1.65,0.38-3.31,0.44-4.97
		c0.02-0.46-0.32-1.19-0.7-1.36c-1.75-0.82-3.25,0.09-3.48,2.03c-0.32,2.77-0.61,5.55-0.9,8.33
		C95.27,180.45,94.81,185.04,94.37,189.37z"/>
	<path d="M92.62,151.14c-1.73,0-3.31,0-5.02,0c1.18-11.44,2.35-22.8,3.54-34.29c0.73,0,1.42-0.01,2.11,0
		c2.76,0.06,5.52,0.04,8.28,0.21c2.25,0.13,3.41,1.4,3.31,3.66c-0.12,2.85-0.39,5.7-0.67,8.55c-0.47,4.86-0.99,9.72-1.52,14.58
		c-0.12,1.15-0.32,2.3-0.54,3.44c-0.43,2.19-1.79,3.43-4.01,3.67c-1.31,0.14-2.63,0.19-4.03,0.29c0.16-1.53,0.3-2.88,0.45-4.31
		c0.26-0.03,0.51-0.08,0.76-0.09c1.58-0.07,2.01-0.41,2.18-1.98c0.55-5.02,1.07-10.05,1.59-15.08c0.22-2.15,0.46-4.3,0.63-6.45
		c0.14-1.85-0.13-2.11-1.94-2.13c-0.63-0.01-1.26,0-1.99,0C94.71,131.21,93.67,141.14,92.62,151.14z"/>
	<path d="M61.76,151.2c0.2-2.1,0.39-4.08,0.59-6.06c0.29-2.84,0.61-5.69,0.9-8.53c0.2-1.97-0.12-2.31-2.14-2.37
		c-0.13,0-0.26-0.03-0.51-0.05c0.13-1.29,0.25-2.56,0.37-3.78c0.15-0.07,0.21-0.13,0.26-0.13c2.57,0.14,2.77-0.71,2.95-2.83
		c0.13-1.49,0.34-2.97,0.46-4.47c0.11-1.25-0.33-1.72-1.56-1.76c-0.79-0.02-1.59,0-2.49,0c-1.03,10.01-2.05,19.96-3.08,29.92
		c-1.72,0-3.34,0-5.04,0c0.24-2.34,0.46-4.62,0.69-6.9c0.64-6.22,1.28-12.44,1.92-18.66c0.28-2.68,0.55-5.36,0.82-8.04
		c0.05-0.47,0.19-0.71,0.72-0.7c3.26,0.08,6.52,0.06,9.77,0.22c2.12,0.11,3.31,1.32,3.26,3.4c-0.08,2.75-0.3,5.51-0.67,8.24
		c-0.24,1.77-1.37,3-3.25,3.4c0.07,0.13,0.1,0.27,0.16,0.28c1.88,0.47,2.46,1.86,2.35,3.56c-0.21,3.08-0.55,6.16-0.85,9.24
		c-0.16,1.69-0.39,3.37-0.51,5.06c-0.05,0.7-0.23,1-0.99,0.97C64.56,151.16,63.2,151.2,61.76,151.2z"/>
	<path class="st2" d="M178.15,240c0.17-1.55,0.31-2.83,0.45-4.07c0.13-0.07,0.19-0.12,0.25-0.13c2.29-0.17,2.54-0.41,2.78-2.73
		c0.71-6.78,1.43-13.56,2.14-20.34c0.25-2.43-0.08-2.79-2.54-2.79c-1.58,0-1.54,0-1.7,1.63c-0.49,4.86-1.01,9.72-1.52,14.59
		c-0.42,4.03-0.84,8.07-1.27,12.1c-0.06,0.52-0.14,1.04-0.22,1.61c-1.59,0-3.1,0-4.81,0c1.17-11.37,2.33-22.66,3.49-33.9
		c0.14-0.09,0.19-0.15,0.25-0.15c3.42,0.04,6.85-0.01,10.27,0.18c2.07,0.12,3.11,1.3,3.04,3.36c-0.1,3.09-0.4,6.17-0.7,9.25
		c-0.47,4.93-1.01,9.86-1.54,14.78c-0.1,0.89-0.24,1.78-0.44,2.65c-0.52,2.31-1.65,3.35-4.01,3.65
		C180.84,239.86,179.58,239.9,178.15,240z"/>
	<path d="M167.04,161.3c1.66,0,3.27,0,4.99,0c-0.18,1.82-0.34,3.56-0.52,5.31c-0.64,6.25-1.29,12.5-1.93,18.76
		c-0.16,1.52-0.32,3.04-0.4,4.57c-0.06,1.18,0.24,1.46,1.41,1.61c1.78,0.22,2.57-0.35,2.76-2.15c0.5-4.53,0.95-9.06,1.42-13.6
		c0.48-4.63,0.94-9.26,1.44-13.89c0.03-0.24,0.4-0.62,0.62-0.63c1.39-0.06,2.78-0.03,4.29-0.03c-0.21,2.16-0.41,4.23-0.63,6.3
		c-0.57,5.59-1.14,11.18-1.73,16.77c-0.24,2.28-0.46,4.57-0.81,6.83c-0.52,3.3-1.91,4.61-5.22,4.78c-1.88,0.1-3.79-0.02-5.67-0.17
		c-1.68-0.14-2.7-1.02-2.85-2.68c-0.16-1.71-0.12-3.45,0.05-5.16c0.81-8.31,1.69-16.61,2.55-24.91
		C166.87,162.45,166.96,161.9,167.04,161.3z"/>
	<path d="M118.99,161.31c1.68,0,3.23,0,4.86,0c-0.23,2.31-0.46,4.56-0.69,6.8c-0.51,4.93-1,9.86-1.53,14.79
		c-0.3,2.78-0.55,5.56-0.99,8.32c-0.53,3.34-1.9,4.57-5.25,4.73c-1.85,0.09-3.72-0.01-5.57-0.17c-1.82-0.16-2.89-1.19-2.95-3.04
		c-0.06-2.12,0.07-4.25,0.27-6.36c0.53-5.56,1.14-11.12,1.71-16.67c0.27-2.61,0.52-5.23,0.83-7.84c0.03-0.22,0.37-0.57,0.57-0.58
		c1.46-0.05,2.91-0.03,4.51-0.03c-0.21,2.1-0.4,4.11-0.61,6.11c-0.63,6.19-1.28,12.37-1.91,18.56c-0.13,1.29-0.3,2.58-0.37,3.87
		c-0.07,1.23,0.23,1.57,1.29,1.74c1.43,0.23,2.46-0.17,2.68-1.21c0.27-1.23,0.41-2.49,0.54-3.74c0.7-6.75,1.38-13.5,2.07-20.25
		C118.62,164.67,118.8,163.02,118.99,161.31z"/>
	<path d="M108.66,116.89c1.7,0,3.28,0,5.02,0c-0.16,1.71-0.31,3.39-0.48,5.05c-0.59,5.73-1.18,11.45-1.77,17.17
		c-0.21,2.05-0.45,4.1-0.59,6.16c-0.1,1.41,0.13,1.65,1.27,1.8c1.72,0.23,2.54-0.12,2.73-1.39c0.34-2.27,0.56-4.55,0.81-6.83
		c0.58-5.52,1.15-11.05,1.72-16.58c0.18-1.75,0.35-3.51,0.54-5.34c1.62,0,3.23,0,4.87,0c-0.46,4.57-0.91,9.11-1.38,13.64
		c-0.51,4.9-1.01,9.8-1.56,14.69c-0.13,1.11-0.41,2.22-0.74,3.29c-0.51,1.65-1.72,2.69-3.42,2.79c-2.31,0.14-4.65,0.17-6.96-0.01
		c-2.04-0.16-3.04-1.46-3.01-3.77c0.02-2.12,0.24-4.25,0.45-6.37c0.55-5.56,1.14-11.12,1.71-16.68
		C108.12,122.01,108.39,119.5,108.66,116.89z"/>
	<path d="M133.72,131.43c0.27-2.71,0.53-5.29,0.79-7.86c0.01-0.07,0.02-0.13,0.03-0.2c0.29-2.18-0.9-3.15-2.96-2.3
		c-0.43,0.18-0.86,0.77-0.96,1.24c-0.27,1.16-0.37,2.36-0.49,3.55c-0.64,6.22-1.27,12.44-1.91,18.66c-0.01,0.1-0.02,0.2-0.02,0.3
		c-0.14,2.17,0.49,2.69,2.63,2.3c0.99-0.18,1.32-0.83,1.41-1.67c0.28-2.48,0.53-4.96,0.8-7.44c0.05-0.49,0.12-0.99,0.18-1.53
		c1.59,0,3.14,0,4.79,0c-0.13,1.41-0.23,2.79-0.4,4.16c-0.29,2.37-0.52,4.76-0.97,7.11c-0.46,2.4-1.75,3.52-4.18,3.67
		c-1.98,0.13-3.99,0.13-5.97,0c-2.43-0.16-3.5-1.3-3.42-3.76c0.1-2.95,0.39-5.9,0.68-8.85c0.47-4.87,0.97-9.73,1.51-14.59
		c0.17-1.51,0.42-3.03,0.82-4.5c0.5-1.85,1.83-2.97,3.75-3.07c2.22-0.12,4.45-0.14,6.66,0.01c1.88,0.13,2.95,1.26,2.94,3.15
		c-0.01,2.59-0.29,5.17-0.47,7.76c-0.08,1.06-0.19,2.12-0.35,3.17c-0.04,0.25-0.32,0.64-0.5,0.65
		C136.67,131.45,135.25,131.43,133.72,131.43z"/>
	<path class="st2" d="M200.77,106.67c-1.55,0-3,0.02-4.46-0.03c-0.19-0.01-0.5-0.39-0.52-0.63c-0.29-3.01-0.54-6.03-0.8-9.04
		c-0.15-1.72-0.3-3.44-0.59-5.2c-0.09,0.22-0.22,0.42-0.28,0.65c-1.27,4.44-2.54,8.88-3.78,13.33c-0.19,0.68-0.45,0.99-1.21,0.95
		c-1.26-0.07-2.52-0.02-3.92-0.02c0.63-2,1.22-3.89,1.82-5.77c1.19-3.7,2.35-7.41,3.58-11.1c0.53-1.59,0.03-3.1-0.13-4.63
		c-0.44-4.06-0.97-8.12-1.46-12.18c-0.01-0.12,0.03-0.25,0.05-0.48c1.48,0,2.94-0.03,4.39,0.03c0.21,0.01,0.56,0.45,0.59,0.71
		c0.38,3.37,0.71,6.74,1.06,10.11c0.06,0.63,0.15,1.25,0.4,1.91c0.21-0.66,0.44-1.32,0.63-1.99c0.95-3.29,1.91-6.57,2.82-9.87
		c0.19-0.69,0.46-0.99,1.22-0.94c1.12,0.07,2.25,0.02,3.53,0.02c-0.18,0.63-0.31,1.16-0.47,1.68c-1.42,4.5-2.93,8.97-4.23,13.5
		c-0.34,1.18-0.18,2.56-0.03,3.82c0.52,4.56,1.13,9.1,1.7,13.65C200.74,105.62,200.74,106.08,200.77,106.67z"/>
	<path d="M43.46,121.22c-1.04,10.02-2.07,19.97-3.1,29.92c-1.73,0-3.35,0-5.05,0c1.18-11.44,2.35-22.81,3.53-34.19
		c0.2-0.04,0.32-0.09,0.45-0.09c3.33,0.06,6.66,0.05,9.98,0.2c2.12,0.1,3.28,1.29,3.26,3.41c-0.03,2.46-0.27,4.91-0.5,7.36
		c-0.17,1.92-0.39,3.84-0.71,5.74c-0.54,3.16-1.84,4.28-5,4.49c-1.02,0.07-2.05,0.12-3.26,0.19c0.13-1.33,0.23-2.54,0.41-3.74
		c0.03-0.16,0.49-0.35,0.77-0.37c1.75-0.17,2.1-0.47,2.3-2.24c0.33-2.91,0.64-5.82,0.94-8.73c0.16-1.5-0.25-1.93-1.74-1.96
		C45.01,121.21,44.29,121.22,43.46,121.22z"/>
	<path class="st2" d="M154.64,72.59c1.56,0,3.07,0,4.69,0c0.3,5.09,0.6,10.14,0.9,15.2c0.09,0.02,0.17,0.04,0.26,0.06
		c0.12-0.34,0.25-0.67,0.35-1.02c1.21-4.42,2.42-8.84,3.6-13.27c0.2-0.76,0.49-1.12,1.34-1.06c1.15,0.09,2.32,0.02,3.65,0.02
		c-0.15,0.51-0.26,0.91-0.39,1.3c-2.17,6.49-4.42,12.96-6.46,19.5c-0.63,2.03-0.73,4.24-1,6.37c-0.26,2.08-0.41,4.17-0.66,6.25
		c-0.03,0.26-0.37,0.69-0.59,0.7c-1.39,0.06-2.78,0.03-4.34,0.03c0.1-1.24,0.18-2.39,0.29-3.52c0.25-2.48,0.66-4.96,0.73-7.44
		c0.05-2.11-0.24-4.23-0.48-6.34c-0.6-5.25-1.25-10.49-1.88-15.74C154.61,73.31,154.64,72.98,154.64,72.59z"/>
	<path d="M184.69,161.29c3.29,0,6.44,0,9.76,0c-0.13,1.39-0.26,2.72-0.39,4.12c-1.63,0-3.15,0-4.74,0c-0.17,1.66-0.33,3.23-0.5,4.93
		c1.54,0,2.99,0,4.58,0c-0.14,1.39-0.27,2.66-0.41,4.03c-1.57,0-3.05,0-4.6,0c-0.58,5.64-1.16,11.19-1.74,16.88c1.59,0,3.1,0,4.76,0
		c-0.15,1.52-0.29,2.88-0.43,4.29c-3.29,0-6.51,0-9.83,0C182.34,184.11,183.51,172.75,184.69,161.29z"/>
	<path class="st2" d="M166.47,214.81c1.58,0,2.97,0,4.54,0c-0.11,1.32-0.21,2.56-0.32,3.91c-1.35,0-2.64,0.02-3.93-0.01
		c-0.55-0.01-0.75,0.19-0.8,0.74c-0.51,5.09-1.04,10.19-1.57,15.28c-0.03,0.29,0,0.59,0,1.02c1.52,0,3.03,0,4.66,0
		c-0.12,1.32-0.21,2.5-0.35,3.68c-0.02,0.18-0.32,0.47-0.49,0.47c-3.02,0.03-6.04,0.02-9.24,0.02c1.18-11.41,2.34-22.7,3.51-34.07
		c3.22,0,6.4,0,9.65,0c-0.14,1.29-0.27,2.53-0.42,3.89c-1.32,0-2.57,0.03-3.83-0.01c-0.67-0.02-0.93,0.18-0.98,0.88
		C166.82,211.96,166.63,213.3,166.47,214.81z"/>
	<path class="st2" d="M143.71,72.58c1.67,0,3.22,0,4.91,0c-1.03,9.98-2.05,19.87-3.08,29.89c1.71,0,3.29,0,5.07,0
		c-0.15,1.36-0.27,2.6-0.45,3.83c-0.02,0.15-0.38,0.36-0.58,0.36c-2.99,0.02-5.99,0.01-8.98,0c-0.09,0-0.18-0.07-0.39-0.15
		C141.38,95.24,142.54,83.95,143.71,72.58z"/>
	<path class="st2" d="M100.42,205.78c-1.03,10.02-2.05,19.91-3.08,29.95c1.76,0,3.37,0,5.08,0c-0.15,1.44-0.29,2.75-0.43,4.13
		c-3.28,0-6.52,0-9.87,0c0-0.43-0.04-0.85,0.01-1.27c0.56-5.42,1.12-10.84,1.68-16.26c0.44-4.23,0.87-8.46,1.3-12.69
		c0.11-1.09,0.22-2.18,0.38-3.27c0.03-0.22,0.31-0.56,0.48-0.57C97.42,205.76,98.88,205.78,100.42,205.78z"/>
	<path d="M157.07,116.89c1.72,0,3.31,0,5.05,0c-1.18,11.44-2.35,22.83-3.53,34.25c-1.7,0-3.31,0-5.05,0
		C154.71,139.7,155.89,128.34,157.07,116.89z"/>
	<path d="M141.01,161.3c1.75,0,3.34,0,5.05,0c-1.18,11.44-2.35,22.8-3.53,34.22c-1.71,0-3.35,0-5.05,0
		C138.66,184.09,139.84,172.71,141.01,161.3z"/>
	<path class="st2" d="M136.64,239.83c0.17-1.71,0.32-3.35,0.49-5c0.5-4.86,1.01-9.72,1.52-14.57c0.48-4.63,0.94-9.26,1.44-13.88
		c0.02-0.22,0.38-0.57,0.59-0.57c1.39-0.05,2.78-0.03,4.38-0.03c-1.17,11.4-2.34,22.68-3.51,34.06
		C139.96,239.83,138.38,239.83,136.64,239.83z"/>
	<path class="st2" d="M109.55,239.87c-1.65,0-3.2,0-4.89,0c0.17-1.77,0.32-3.48,0.5-5.19c0.5-4.79,1.01-9.58,1.51-14.37
		c0.48-4.63,0.94-9.26,1.44-13.88c0.03-0.23,0.34-0.61,0.52-0.62c1.42-0.05,2.84-0.03,4.43-0.03
		C111.89,217.19,110.73,228.48,109.55,239.87z"/>
	<path d="M147.37,151.16c-1.71,0-3.29,0-5.05,0c0.98-9.54,1.96-19.01,2.94-28.56c1.65,0,3.26,0,5.05,0
		C149.33,132.12,148.36,141.6,147.37,151.16z"/>
	<path d="M129.21,167.03c1.71,0,3.33,0,5.05,0c-0.98,9.54-1.96,19.02-2.94,28.51c-1.72,0-3.34,0-5.05,0
		C127.25,186.01,128.23,176.53,129.21,167.03z"/>
	<path class="st2" d="M152.75,239.88c-1.69,0-3.24,0-4.9,0c0.16-1.63,0.3-3.21,0.46-4.78c0.5-4.89,1.02-9.78,1.52-14.67
		c0.28-2.74,0.56-5.49,0.83-8.23c0.05-0.57,0.28-0.81,0.88-0.79c1.32,0.04,2.64,0.01,4.13,0.01
		C154.7,220.96,153.73,230.37,152.75,239.88z"/>
	<path d="M141.67,120.96c0.13-1.35,0.27-2.65,0.4-4.03c4.16,0,8.3,0,12.52,0c-0.14,1.34-0.28,2.65-0.42,4.03
		C150.02,120.96,145.89,120.96,141.67,120.96z"/>
	<path d="M138.53,161.31c-0.14,1.42-0.27,2.73-0.41,4.06c-4.21,0-8.31,0-12.52,0c0.14-1.38,0.28-2.69,0.42-4.06
		C130.18,161.31,134.29,161.31,138.53,161.31z"/>
	<path class="st2" d="M147.2,209.68c0.11-1.18,0.19-2.3,0.35-3.41c0.03-0.19,0.39-0.47,0.6-0.47c3.89-0.03,7.78-0.02,11.8-0.02
		c-0.13,1.34-0.26,2.58-0.39,3.9C155.45,209.68,151.39,209.68,147.2,209.68z"/>
</g>
</svg>
